<svg width="326" height="81" viewBox="0 0 326 81" fill="none" xmlns="http://www.w3.org/2000/svg">
<path d="M0.400024 79V1.72002H42.88C50.72 1.72002 56.68 3.56002 60.76 7.24002C64.84 10.92 66.88 16.2 66.88 23.08C66.88 27.08 66.12 30.44 64.6 33.16C63.16 35.88 61.24 38.04 58.84 39.64C62.12 40.92 64.72 42.8 66.64 45.28C68.64 47.68 69.64 51.28 69.64 56.08C69.64 63.36 67.4 69 62.92 73C58.44 77 52.08 79 43.84 79H0.400024ZM22.12 32.56H36.76C42.28 32.56 45.04 30.08 45.04 25.12C45.04 22.64 44.36 20.76 43 19.48C41.72 18.2 39.44 17.56 36.16 17.56H22.12V32.56ZM22.12 63.28H37.72C40.76 63.28 43 62.64 44.44 61.36C45.88 60.08 46.6 57.96 46.6 55C46.6 52.52 45.88 50.64 44.44 49.36C43 48.08 40.6 47.44 37.24 47.44H22.12V63.28Z" fill="white"/>
<path d="M78.0953 79V1.72002H100.655V79H78.0953Z" fill="white"/>
<path d="M134.59 79V50.68L106.75 1.72002H130.27L145.87 30.88L161.47 1.72002H184.99L157.15 50.68V79H134.59Z" fill="white"/>
<path d="M210.876 80.2C205.676 80.2 200.756 79.8 196.116 79C191.476 78.12 187.516 76.92 184.236 75.4V56.8C187.836 58.48 191.836 59.84 196.236 60.88C200.636 61.92 204.756 62.44 208.596 62.44C212.596 62.44 215.596 62.12 217.596 61.48C219.676 60.76 220.716 59.2 220.716 56.8C220.716 55.12 220.116 53.8 218.916 52.84C217.796 51.88 215.996 51 213.516 50.2C211.116 49.4 207.956 48.4 204.036 47.2C198.836 45.52 194.716 43.68 191.676 41.68C188.636 39.68 186.436 37.24 185.076 34.36C183.796 31.48 183.156 27.96 183.156 23.8C183.156 16.2 185.836 10.44 191.196 6.52002C196.636 2.52002 204.676 0.52002 215.316 0.52002C219.556 0.52002 223.916 0.88002 228.396 1.60002C232.956 2.32002 236.636 3.12002 239.436 4.00002V22.72C235.676 21.2 232.076 20.12 228.636 19.48C225.196 18.84 221.956 18.52 218.916 18.52C215.396 18.52 212.396 18.8 209.916 19.36C207.436 19.92 206.196 21.36 206.196 23.68C206.196 25.68 207.236 27.16 209.316 28.12C211.476 29 215.276 30.16 220.716 31.6C227.036 33.28 231.836 35.32 235.116 37.72C238.476 40.12 240.756 42.92 241.956 46.12C243.156 49.24 243.756 52.8 243.756 56.8C243.756 63.84 241.036 69.52 235.596 73.84C230.156 78.08 221.916 80.2 210.876 80.2Z" fill="white"/>
<path d="M252.119 79V1.72002H274.679V28.96L298.079 1.72002H323.759L296.519 33.4L325.679 79H301.679L282.599 47.8L274.679 56.68V79H252.119Z" fill="white"/>
</svg>
