<svg width="137" height="34" viewBox="0 0 137 34" fill="none" xmlns="http://www.w3.org/2000/svg">
<path d="M0 33.4879V0.512048H17.8916C21.1936 0.512048 23.7039 1.29719 25.4223 2.86747C27.1407 4.43775 27.9999 6.69076 27.9999 9.62651C27.9999 11.3333 27.6798 12.7671 27.0396 13.9277C26.4331 15.0884 25.6244 16.01 24.6136 16.6928C25.9951 17.239 27.0901 18.0412 27.8988 19.0994C28.7411 20.1235 29.1623 21.6596 29.1623 23.7078C29.1623 26.8143 28.2189 29.2209 26.332 30.9277C24.4451 32.6345 21.7664 33.4879 18.2959 33.4879H0ZM9.14797 13.6717H15.314C17.6389 13.6717 18.8014 12.6135 18.8014 10.497C18.8014 9.43876 18.515 8.63655 17.9422 8.09036C17.403 7.54418 16.4428 7.27108 15.0613 7.27108H9.14797V13.6717ZM9.14797 26.7801H15.7183C16.9987 26.7801 17.9422 26.507 18.5486 25.9608C19.1551 25.4147 19.4584 24.51 19.4584 23.247C19.4584 22.1888 19.1551 21.3865 18.5486 20.8404C17.9422 20.2942 16.9313 20.0211 15.5162 20.0211H9.14797V26.7801Z" fill="black"/>
<path d="M32.7235 33.4879V0.512048H42.2253V33.4879H32.7235Z" fill="black"/>
<path d="M56.5178 33.4879V21.4036L44.7922 0.512048H54.6983L61.2687 12.9548L67.839 0.512048H77.7451L66.0195 21.4036V33.4879H56.5178Z" fill="black"/>
<path d="M88.6478 34C86.4577 34 84.3855 33.8293 82.4312 33.4879C80.477 33.1124 78.8091 32.6004 77.4276 31.9518V24.0151C78.9439 24.7319 80.6286 25.3122 82.4818 25.756C84.3349 26.1998 86.0702 26.4217 87.6875 26.4217C89.3722 26.4217 90.6358 26.2851 91.4781 26.012C92.3542 25.7048 92.7922 25.0392 92.7922 24.0151C92.7922 23.2982 92.5395 22.7349 92.0341 22.3253C91.5624 21.9157 90.8042 21.5402 89.7597 21.1988C88.7489 20.8574 87.418 20.4307 85.767 19.9187C83.5768 19.2018 81.8416 18.4167 80.5612 17.5633C79.2808 16.7098 78.3542 15.6687 77.7814 14.4398C77.2423 13.2108 76.9728 11.7088 76.9728 9.93374C76.9728 6.69076 78.1015 4.23293 80.359 2.56024C82.6502 0.853414 86.0365 0 90.5178 0C92.3036 0 94.14 0.153615 96.0268 0.460844C97.9474 0.768072 99.4973 1.10944 100.677 1.48494V9.47289C99.093 8.8243 97.5768 8.36345 96.1279 8.09036C94.6791 7.81727 93.3145 7.68072 92.0341 7.68072C90.5515 7.68072 89.288 7.8002 88.2435 8.03916C87.199 8.27811 86.6767 8.89257 86.6767 9.88253C86.6767 10.7359 87.1147 11.3675 87.9908 11.7771C88.9005 12.1526 90.501 12.6476 92.7922 13.262C95.454 13.9789 97.4757 14.8494 98.8571 15.8735C100.272 16.8976 101.233 18.0924 101.738 19.4578C102.243 20.7892 102.496 22.3082 102.496 24.0151C102.496 27.0191 101.351 29.4428 99.0593 31.2861C96.7681 33.0954 93.2976 34 88.6478 34Z" fill="black"/>
<path d="M106.018 33.4879V0.512048H115.52V12.1355L125.376 0.512048H136.191L124.718 14.0301L137 33.4879H126.892L118.856 20.1747L115.52 23.9639V33.4879H106.018Z" fill="black"/>
</svg>
